<?xml version="1.0" encoding="UTF-8"?>
<svg id="Layer_1" data-name="Layer 1" xmlns="http://www.w3.org/2000/svg" viewBox="0 0 783.75 225">
  <defs>
    <style>
      .cls-1 {
        fill: #1e1e1e;
      }

      .cls-2 {
        fill: #f2fafe;
      }
    </style>
  </defs>
  <path class="cls-2" d="M27.2,164.7c-8.13-3.33-14.63-8.27-19.5-14.8-4.87-6.53-7.43-14.4-7.7-23.6h36.4c.53,5.2,2.33,9.17,5.4,11.9,3.07,2.73,7.07,4.1,12,4.1s9.07-1.17,12-3.5c2.93-2.33,4.4-5.57,4.4-9.7,0-3.47-1.17-6.33-3.5-8.6-2.33-2.27-5.2-4.13-8.6-5.6-3.4-1.46-8.23-3.13-14.5-5-9.07-2.8-16.47-5.6-22.2-8.4-5.73-2.8-10.67-6.93-14.8-12.4-4.13-5.47-6.2-12.6-6.2-21.4,0-13.07,4.73-23.3,14.2-30.7,9.47-7.4,21.8-11.1,37-11.1s27.93,3.7,37.4,11.1c9.47,7.4,14.53,17.7,15.2,30.9h-37c-.27-4.53-1.93-8.1-5-10.7-3.07-2.6-7-3.9-11.8-3.9-4.13,0-7.47,1.1-10,3.3-2.53,2.2-3.8,5.37-3.8,9.5,0,4.53,2.13,8.07,6.4,10.6,4.27,2.53,10.93,5.27,20,8.2,9.07,3.07,16.43,6,22.1,8.8,5.67,2.8,10.57,6.87,14.7,12.2,4.13,5.33,6.2,12.2,6.2,20.6s-2.03,15.27-6.1,21.8c-4.07,6.53-9.97,11.73-17.7,15.6-7.73,3.87-16.87,5.8-27.4,5.8s-19.47-1.67-27.6-5Z"/>
  <path class="cls-2" d="M163,59.9c5.87-3.2,12.73-4.8,20.6-4.8,9.2,0,17.53,2.33,25,7,7.47,4.67,13.37,11.33,17.7,20,4.33,8.67,6.5,18.73,6.5,30.2s-2.17,21.57-6.5,30.3c-4.33,8.73-10.23,15.47-17.7,20.2-7.47,4.73-15.8,7.1-25,7.1-7.73,0-14.57-1.6-20.5-4.8-5.93-3.2-10.57-7.33-13.9-12.4v68.8h-34.2V56.7h34.2v15.8c3.33-5.2,7.93-9.4,13.8-12.6ZM190.9,92.2c-4.73-4.87-10.57-7.3-17.5-7.3s-12.57,2.47-17.3,7.4c-4.73,4.93-7.1,11.67-7.1,20.2s2.37,15.27,7.1,20.2c4.73,4.93,10.5,7.4,17.3,7.4s12.6-2.5,17.4-7.5c4.8-5,7.2-11.77,7.2-20.3s-2.37-15.23-7.1-20.1Z"/>
  <path class="cls-2" d="M260.1,162.9c-8.73-4.67-15.6-11.33-20.6-20-5-8.67-7.5-18.8-7.5-30.4s2.53-21.57,7.6-30.3c5.07-8.73,12-15.43,20.8-20.1,8.8-4.67,18.67-7,29.6-7s20.8,2.33,29.6,7c8.8,4.67,15.73,11.37,20.8,20.1,5.07,8.73,7.6,18.83,7.6,30.3s-2.57,21.57-7.7,30.3c-5.13,8.73-12.13,15.43-21,20.1-8.87,4.67-18.77,7-29.7,7s-20.77-2.33-29.5-7ZM306.3,133.1c4.6-4.8,6.9-11.67,6.9-20.6s-2.23-15.8-6.7-20.6c-4.47-4.8-9.97-7.2-16.5-7.2s-12.2,2.37-16.6,7.1c-4.4,4.73-6.6,11.63-6.6,20.7s2.17,15.8,6.5,20.6c4.33,4.8,9.77,7.2,16.3,7.2s12.1-2.4,16.7-7.2Z"/>
  <path class="cls-2" d="M416.39,139.3v29h-17.4c-12.4,0-22.07-3.03-29-9.1-6.93-6.07-10.4-15.97-10.4-29.7v-44.4h-13.6v-28.4h13.6v-27.2h34.2v27.2h22.4v28.4h-22.4v44.8c0,3.33.8,5.73,2.4,7.2,1.6,1.47,4.27,2.2,8,2.2h12.2Z"/>
  <path class="cls-2" d="M485.59,139.3v29h-17.4c-12.4,0-22.07-3.03-29-9.1-6.93-6.07-10.4-15.97-10.4-29.7v-44.4h-13.6v-28.4h13.6v-27.2h34.2v27.2h22.4v28.4h-22.4v44.8c0,3.33.8,5.73,2.4,7.2,1.6,1.47,4.27,2.2,8,2.2h12.2Z"/>
  <path class="cls-2" d="M541.79,60.8c6-3.53,12.67-5.3,20-5.3v36.2h-9.4c-8.53,0-14.93,1.83-19.2,5.5-4.27,3.67-6.4,10.1-6.4,19.3v51.8h-34.2V56.7h34.2v18.6c4-6.13,9-10.97,15-14.5Z"/>
  <path class="cls-2" d="M780.93,29.21c-12.67-6.73-27.04-11.01-43.91-13.1-14.77-1.83-29.98-1.85-44.68-1.82h0c-14.36-.02-29.23,0-43.38-1.74-15.56-1.92-28.72-5.83-40.23-11.94-.06-.03-.13-.05-.2-.08-.23-.11-.47-.2-.72-.28-.14-.04-.27-.09-.41-.12-.07-.02-.14-.05-.21-.06-.19-.03-.37-.03-.56-.04-.13-.01-.26-.03-.4-.03-.33,0-.66.04-.98.1-.06.01-.11,0-.17.02-.37.08-.72.21-1.07.37-.03.02-.07.02-.1.04-.1.05-.17.12-.27.17-.22.12-.42.25-.62.4-.12.09-.23.19-.34.29-.18.17-.35.34-.51.53-.09.1-.17.2-.25.31-.16.23-.3.47-.43.72-.05.09-.1.18-.15.28-.15.36-.28.73-.35,1.13l-1.83,10.04-6,32.89s0,0,0,0l-7.83,42.92s0,0,0,0l-7.83,42.92h0s-15.62,85.6-15.62,85.6c-.53,2.89,1.39,5.66,4.27,6.18.32.06.64.09.96.09,2.52,0,4.76-1.8,5.22-4.36l14.37-78.74c11.05,4.94,23.36,8.24,37.44,9.98,14.14,1.75,28.67,1.82,42.77,1.82h1.92s.02,0,.03,0c.02,0,.03,0,.05,0,14.35,0,29.19,0,43.29,1.74,15.78,1.96,28.56,5.75,40.23,11.94.78.41,1.64.62,2.49.62.79,0,1.59-.18,2.32-.53,1.52-.74,2.61-2.16,2.91-3.83l7.83-42.93,7.83-42.93s0,0,0,0l7.83-42.93c.42-2.28-.69-4.56-2.74-5.65Z"/>
  <path class="cls-1" d="M716.03,105.12c-1.75-.17-3.51-.27-5.26-.41-1.1-.08-2.2-.18-3.3-.26-3.93-.25-7.86-.45-11.8-.57-.89-.03-1.78-.04-2.67-.06-3.21-.08-6.41-.14-9.61-.17-1.59-.01-3.17-.03-4.76-.03-.79,0-1.58-.01-2.36-.02l7.03-38.52c6.85.01,13.74.04,20.64.25.1,0,.19,0,.29.01,3.74.11,7.46.3,11.17.53,1.16.07,2.32.17,3.48.25,1.41.11,2.79.27,4.19.39l-2.66,14.57-4.39,24.03Z"/>
  <path class="cls-1" d="M624.24,99.52c-.63-.14-1.26-.28-1.88-.42-2.88-.66-5.71-1.38-8.44-2.19-.11-.03-.22-.07-.33-.11-2.64-.8-5.2-1.68-7.71-2.62-.54-.2-1.09-.4-1.62-.61-2.51-.98-4.97-2.03-7.36-3.17-.13-.06-.26-.13-.39-.2l6.8-37.23c.4.18.82.32,1.22.49,2.01.87,4.05,1.7,6.13,2.47.58.22,1.16.45,1.75.66,2.57.92,5.21,1.78,7.9,2.56.59.17,1.2.33,1.8.49,2.25.63,4.55,1.21,6.9,1.74.72.16,1.44.34,2.17.49,2.88.62,5.81,1.18,8.83,1.66.1.02-5.52,31.85-5.52,31.85l-1.07,5.84c-.1-.02-.21-.03-.32-.05-3.03-.48-5.97-1.05-8.85-1.67Z"/>
  <path class="cls-1" d="M767.24,78.77c-.46-.21-.96-.37-1.42-.57-2.39-1.04-4.82-2.02-7.29-2.95-.67-.25-1.33-.52-2.01-.76-3.05-1.09-6.17-2.1-9.36-3.04-.68-.2-1.37-.37-2.06-.56-2.69-.75-5.43-1.44-8.22-2.08-.83-.19-1.66-.39-2.5-.57-3.41-.73-6.89-1.4-10.47-1.97-.1-.02-.2-.04-.31-.06l8.11-44.46c16.51,2.56,30.6,6.77,43.56,13.01l-8.03,43.99Z"/>
  <path class="cls-1" d="M682.55,65.13c-.52,0-1.04,0-1.56,0-2.84,0-5.69-.01-8.54-.04-2.52-.02-5.05-.07-7.58-.12-2.53-.05-5.06-.12-7.58-.21-2.92-.1-5.83-.22-8.73-.39-1.46-.08-2.91-.19-4.36-.29-1.41-.1-2.8-.25-4.2-.37l4.02-20.35c1.45-7.92,2.91-15.84,4.36-23.76,6.24,1.34,13.84,2.49,22.52,2.78,8.41.29,15.85-.3,22.02-1.16-3.46,14.64-6.91,29.28-10.37,43.91Z"/>
  <path class="cls-1" d="M627.26,137.48l6.62-36.25c1.65.16,3.31.26,4.96.39,1.26.1,2.52.21,3.79.29,3.82.25,7.64.45,11.46.58.27,0,.54.03.81.04,4.24.14,8.47.21,12.69.26,1.32.01,2.62.02,3.93.03,1.58,0,3.17.03,4.75.03l-4.72,25.87-2.78,15.23c-14.1-.02-28.48-.16-42.43-1.45l.92-5.02Z"/>
  <path class="cls-1" d="M751.65,156.95c-13.17-5.31-27.64-9.06-43.86-11.38l4.03-19.94,4.12-20.37c.13.02.27.03.4.05,3.61.51,7.09,1.11,10.49,1.77.77.15,1.54.31,2.3.47,3.4.7,6.73,1.46,9.93,2.32.15.04.3.09.45.13,3.09.84,6.09,1.78,9.03,2.78.66.22,1.32.44,1.97.67,2.95,1.05,5.84,2.17,8.66,3.38.18.08.35.16.52.24l-8.06,39.88Z"/>
</svg>